<?xml version="1.0" ?><!DOCTYPE svg  PUBLIC '-//W3C//DTD SVG 1.1//EN'  'http://www.w3.org/Graphics/SVG/1.1/DTD/svg11.dtd'><svg enable-background="new 0 0 100 100" height="100px" id="Your_Icon" version="1.1" viewBox="0 0 100 100" width="100px" xml:space="preserve" xmlns="http://www.w3.org/2000/svg" xmlns:xlink="http://www.w3.org/1999/xlink"><g><g><g/></g><g/></g><g><path d="M87.5,8C86.672,8,86,8.672,86,9.5V92v3H24.5c-2.485,0-4.5-2.015-4.5-4.5s2.015-4.5,4.5-4.5H80c1.657,0,3-1.343,3-3V5   c0-1.657-1.343-3-3-3H24.5C20.357,2,17,5.357,17,9.5v81c0,4.142,3.357,7.5,7.5,7.5H86c1.656,0,3-1.343,3-3V9.5   C89,8.672,88.328,8,87.5,8z M20,9.5C20,7.014,22.014,5,24.5,5H80v78H24.5c-1.688,0-3.247,0.559-4.5,1.5V9.5z"/><path d="M24.5,89c-0.829,0-1.5,0.672-1.5,1.5s0.671,1.5,1.5,1.5h57c0.828,0,1.5-0.672,1.5-1.5S82.328,89,81.5,89H24.5z"/></g></svg>