<?xml version="1.0" ?><!DOCTYPE svg  PUBLIC '-//W3C//DTD SVG 1.1//EN'  'http://www.w3.org/Graphics/SVG/1.1/DTD/svg11.dtd'><svg enable-background="new 0 0 32 32" height="32px" id="i30" version="1.1" viewBox="0 0 32 32" width="32px" xml:space="preserve" xmlns="http://www.w3.org/2000/svg" xmlns:xlink="http://www.w3.org/1999/xlink"><g><g><path d="M28.378,11.715c-0.623-2.779-4.263-7.186-11.379-7.186c-0.806,0-1.642,0.058-2.488,0.174    C7.226,5.695,2.998,10.629,2.718,14.767c-0.109,1.618,0.195,2.823,0.904,3.582c0.26,0.278,0.569,0.49,0.916,0.634    c-0.077,0.219-0.131,0.452-0.145,0.701c-0.041,0.729,0.224,1.833,1.715,2.953c1.198,0.898,3.348,1.945,5.299,1.945    c0.02,0,0.038-0.004,0.058-0.005l-0.31,3.231h2.368l0.098-0.349c1.065-3.799,2.307-5.747,2.911-6.534    c0.417,0.12,0.887,0.227,1.431,0.311c0.285,0.044,0.569,0.066,0.846,0.066c2.519,0,3.971-1.752,4.58-2.715    c1.485-0.004,2.836-0.692,3.819-1.92C28.323,15.275,28.76,13.423,28.378,11.715z M7.387,20.43    c-0.428,0.017-1.119-0.058-1.086-0.639c0.034-0.61,0.681-0.814,1.163-0.926c0.649-0.152,1.303-0.274,1.966-0.345    c0.417-0.045,0.839-0.074,1.259-0.074c0.618,0,1.131,0.067,1.485,0.194c0.08,0.029,0.148,0.062,0.222,0.093    c0.018,0.014,0.035,0.029,0.053,0.044c-0.169,0.007-0.339,0.057-0.536,0.094c-0.803,0.187-1.735,0.669-2.644,1.052    c-0.453,0.193-0.903,0.347-1.311,0.441C7.757,20.388,7.56,20.442,7.387,20.43z M10.349,22.038    c-0.461,0.328-0.983,0.24-1.475,0.024c-0.232-0.102-0.497-0.419-0.257-0.64C8.76,21.29,8.997,21.23,9.17,21.143    c0.188-0.094,0.374-0.195,0.556-0.3c0.5-0.288,0.988-0.599,1.492-0.881c0.375-0.211,0.755-0.415,1.172-0.532    c0.165-0.046,0.347-0.121,0.52-0.118c0.252,0.003,0.27,0.174,0.052,0.289c-0.194,0.102-0.398,0.16-0.573,0.295    c-0.214,0.165-0.404,0.364-0.585,0.563c-0.27,0.296-0.503,0.623-0.741,0.903C10.825,21.645,10.588,21.896,10.349,22.038z     M13.088,21.442c-0.137,0.737-0.502,0.967-0.804,1.085c-0.152,0.059-0.438,0.094-0.548-0.063c-0.126-0.179,0.08-0.366,0.167-0.511    c0.213-0.355,0.383-0.695,0.567-0.972c0.11-0.166,0.217-0.342,0.367-0.475C13.382,20.022,13.131,21.211,13.088,21.442z     M25.715,15.473c-0.463,0.578-1.134,1.083-1.886,1.166c-1.353,0.149-2.538-0.836-3.504-1.645    c-0.297-0.249-0.583-0.569-0.893-0.882c-0.619-0.647-1.243-1.405-1.976-2.157c-0.38-0.371-0.745-0.755-1.189-1.091    c-0.633-0.532-1.385-0.875-2.144-1.186c-1.383-0.363-2.783-0.193-3.994,0.567C9.733,10.509,9.538,10.7,9.538,10.7    s1.022-0.199,1.62-0.11c0.442,0.066,1.045,0.454,1.172,0.899c0.086,0.3,0.005,0.623-0.115,0.902    c-0.265,0.615-0.818,1.139-1.452,1.355c-0.619,0.211-1.391,0.28-2.041,0.269c0,0,0.348,0.398,1.062,0.547    c0.353,0.094,0.786,0.129,1.245,0.063c0.804-0.114,1.514-0.441,2.091-1.02c0.36-0.361,0.666-0.933,1.146-1.155    c0.796-0.368,1.771,0.434,2.256,0.955c0.41,0.475,0.72,0.855,0.976,1.326c0.229,0.422,0.406,0.752,0.295,1.299    c-0.102,0.498-0.816,0.741-1.257,0.668c-0.07-0.012-0.61-0.221-0.61-0.271c0.002,0.175,0.205,0.535,0.311,0.689    c0.193,0.282,0.553,0.516,0.866,0.612c0.454,0.14,1.122,0.089,1.576-0.063c0.674-0.225,1.697-0.458,1.822,0.692    c0.035,0.318-0.291,0.671-0.55,0.801c-0.639,0.317-1.172,0.285-1.867,0.187c-0.671-0.095-1.381-0.258-1.967-0.61    c-0.805-0.484-1.452-1.223-1.703-2.137c-0.178-0.648-0.204-1.521-0.163-1.604c-0.325,0.658-1.12,1.509-2.091,1.598    c-0.779,0.072-1.15,0.006-1.83,0.02c-0.912,0.019-1.53-0.139-2.158-0.692c-0.305-0.269-0.726-1.052-0.842-1.468    c-0.182,0.806-0.231,2.124-1.047,2.557c-0.502,0.266-1.31,0.188-1.522-0.441c-0.179-0.53-0.172-1.123-0.135-1.674    c0.026-0.386,0.1-0.763,0.196-1.137c0.11-0.431,0.193-1.093,0.727-1.196c0.372-0.071,0.703,0.137,1.041,0.256    c0.387,0.136,0.802,0.196,1.211,0.188c0.366-0.006,0.773-0.148,1.043-0.296c0.271-0.131,0.627-0.433,0.702-0.642    c0,0-1.039,0.034-1.625-0.245c-0.586-0.278-0.782-0.416-0.936-0.798c-0.207-0.515,0.159-0.927,0.523-1.249    c0.366-0.324,0.754-0.623,1.157-0.899c1.058-0.723,2.226-1.281,3.444-1.677c0.58-0.189,1.201-0.356,1.817-0.445    c0.463-0.068,1.28-0.082,1.154,0.636C14.975,7.978,14.189,8.3,13.701,8.34c0.061,0.086-0.082-0.067,0,0    c0.706,0.572,1.634,0.331,2.317-0.057c0.111-0.064,0.207-0.146,0.299-0.235c0.103,0.181,0.239,0.34,0.383,0.487    c0.323,0.315,0.704,0.511,1.054,0.627c0.349,0.114,0.672,0.177,0.955,0.126c0.283-0.053,0.509-0.166,0.659-0.29    c0.151-0.12,0.227-0.228,0.227-0.228c-1.072,0.055-2.82-1.062-1.675-2.065c0.195-0.171,0.686-0.164,0.936-0.13    c0.639,0.088,1.272,0.223,1.889,0.411c0.709,0.216,1.466,0.416,2.092,0.835c0.293,0.196,0.592,0.467,0.62,0.841    c0.046,0.62-0.604,1.255-1.099,1.502c-1.67,0.835-3.381,0.28-3.381,0.28s0.024,0.147,0.134,0.364    c0.111,0.211,0.32,0.471,0.638,0.685c0.314,0.226,0.748,0.339,1.225,0.414c0.241,0.032,0.495,0.053,0.76,0.041    c0.262-0.01,0.535-0.057,0.8-0.129c0.032-0.009,0.063-0.021,0.095-0.031c0.002,0.152,0.01,0.302,0.037,0.448    c0.036,0.257,0.115,0.496,0.192,0.721c0.084,0.224,0.175,0.432,0.285,0.615c0.101,0.188,0.246,0.336,0.373,0.468    c0.283,0.248,0.571,0.388,0.8,0.44c0.228,0.054,0.374,0.045,0.374,0.045s-0.829-1.235-0.495-2.762    c0.086-0.395,0.299-1.026,0.703-1.19c1.06-0.43,1.436,0.76,1.615,1.56C26.769,13.28,26.471,14.529,25.715,15.473z"/></g></g></svg>